# xmcd
# Track frame offsets:
# 150
# 15284
# 33103
# 48455
# 66000
# 81606
# 98079
# 113255
# 131433
# 148579
# 160263
# 173462
# 185726
# 203103
# 213230
#
# Disc length: 3009 seconds
# Revision: 0
# Processed by: cddbd v1.4PL0 Copyright (c) Steve Scherf et al.
# Submitted via: VisiTrax 2.9.5.180 - For more info visit www.synapsa.com
#
DISCID=be0bbf0f
DTITLE=Derrick Mehaffey - Long time...no see
DYEAR=1900
DGENRE=
TTITLE0=Long time no see
TTITLE1=Rumors get around
TTITLE2=Well enogh alone
TTITLE3=Mama did raise one fool
TTITLE4=Wild side of me
TTITLE5=I know it by heart
TTITLE6=Friendly fire
TTITLE7=The never lasting kind
TTITLE8=Let's cross the bridge
TTITLE9=Survivor
TTITLE10=Don't say I ever gave you nothing
TTITLE11=One sorry me
TTITLE12=The sad behind the smile
TTITLE13=I'm gonna get to you
TTITLE14=Supper time
EXTD=
EXTT0=
EXTT1=
EXTT2=
EXTT3=
EXTT4=
EXTT5=
EXTT6=
EXTT7=
EXTT8=
EXTT9=
EXTT10=
EXTT11=
EXTT12=
EXTT13=
EXTT14=
PLAYORDER=
